<mxfile host="app.diagrams.net" modified="2021-02-18T09:18:38.011Z" agent="5.0 (Windows NT 10.0; Win64; x64) AppleWebKit/537.36 (KHTML, like Gecko) Chrome/88.0.4324.182 Safari/537.36" etag="b8X9jkTC1W8Ffj5SpsAb" version="14.4.2" type="github">
  <diagram id="x8W8AJZ4dCZI1heM8H32" name="Page-1">
    <mxGraphModel dx="2249" dy="705" grid="1" gridSize="10" guides="1" tooltips="1" connect="1" arrows="1" fold="1" page="1" pageScale="1" pageWidth="827" pageHeight="1169" math="0" shadow="0">
      <root>
        <mxCell id="0" />
        <mxCell id="1" parent="0" />
        <mxCell id="_py3yEN6EtsgkCyzsrZI-14" style="edgeStyle=orthogonalEdgeStyle;rounded=0;orthogonalLoop=1;jettySize=auto;html=1;exitX=1;exitY=0.5;exitDx=0;exitDy=0;entryX=0;entryY=0.25;entryDx=0;entryDy=0;" edge="1" parent="1" source="_py3yEN6EtsgkCyzsrZI-1" target="_py3yEN6EtsgkCyzsrZI-2">
          <mxGeometry relative="1" as="geometry" />
        </mxCell>
        <mxCell id="_py3yEN6EtsgkCyzsrZI-15" style="edgeStyle=orthogonalEdgeStyle;rounded=0;orthogonalLoop=1;jettySize=auto;html=1;exitX=0.5;exitY=1;exitDx=0;exitDy=0;" edge="1" parent="1" source="_py3yEN6EtsgkCyzsrZI-29" target="_py3yEN6EtsgkCyzsrZI-5">
          <mxGeometry relative="1" as="geometry" />
        </mxCell>
        <mxCell id="_py3yEN6EtsgkCyzsrZI-26" style="edgeStyle=orthogonalEdgeStyle;rounded=0;orthogonalLoop=1;jettySize=auto;html=1;exitX=0;exitY=0.75;exitDx=0;exitDy=0;entryX=1;entryY=0.327;entryDx=0;entryDy=0;entryPerimeter=0;" edge="1" parent="1" source="_py3yEN6EtsgkCyzsrZI-1" target="_py3yEN6EtsgkCyzsrZI-7">
          <mxGeometry relative="1" as="geometry" />
        </mxCell>
        <mxCell id="_py3yEN6EtsgkCyzsrZI-27" style="edgeStyle=orthogonalEdgeStyle;rounded=0;orthogonalLoop=1;jettySize=auto;html=1;exitX=0.25;exitY=1;exitDx=0;exitDy=0;entryX=0.75;entryY=0;entryDx=0;entryDy=0;" edge="1" parent="1" source="_py3yEN6EtsgkCyzsrZI-1" target="_py3yEN6EtsgkCyzsrZI-3">
          <mxGeometry relative="1" as="geometry" />
        </mxCell>
        <mxCell id="_py3yEN6EtsgkCyzsrZI-1" value="&lt;u&gt;Licence&lt;br&gt;&lt;/u&gt;&lt;b&gt;id licence&lt;br&gt;&lt;/b&gt;&lt;i&gt;id passeport&lt;br&gt;id club&lt;br&gt;&lt;/i&gt;date licence" style="rounded=0;whiteSpace=wrap;html=1;" vertex="1" parent="1">
          <mxGeometry x="70" y="40" width="90" height="120" as="geometry" />
        </mxCell>
        <mxCell id="_py3yEN6EtsgkCyzsrZI-2" value="&lt;u&gt;Passeport&lt;br&gt;&lt;/u&gt;&lt;b&gt;id passeport&lt;br&gt;&lt;/b&gt;nom&lt;br&gt;prénom&lt;br&gt;Adresse&lt;br&gt;Téléphone&lt;br&gt;Niveau Groupe&lt;br&gt;Sanguin&lt;br&gt;Date naissance" style="rounded=0;whiteSpace=wrap;html=1;" vertex="1" parent="1">
          <mxGeometry x="340" y="130" width="110" height="160" as="geometry" />
        </mxCell>
        <mxCell id="_py3yEN6EtsgkCyzsrZI-3" value="&lt;u&gt;Club&lt;/u&gt;&lt;br&gt;&lt;b&gt;id club&lt;br&gt;&lt;/b&gt;nom&lt;br&gt;adresse&lt;br&gt;téléphone&lt;br&gt;président&lt;br&gt;date initiale&lt;br&gt;date fin" style="rounded=0;whiteSpace=wrap;html=1;" vertex="1" parent="1">
          <mxGeometry x="-40" y="345" width="110" height="150" as="geometry" />
        </mxCell>
        <mxCell id="_py3yEN6EtsgkCyzsrZI-5" value="&lt;u&gt;Moniteur&lt;/u&gt;&lt;br&gt;&lt;b&gt;id moniteur&lt;br&gt;&lt;/b&gt;&lt;i&gt;id passeport&lt;br&gt;id licence&lt;/i&gt;" style="rounded=0;whiteSpace=wrap;html=1;" vertex="1" parent="1">
          <mxGeometry x="180" y="280" width="80" height="110" as="geometry" />
        </mxCell>
        <mxCell id="_py3yEN6EtsgkCyzsrZI-43" style="edgeStyle=orthogonalEdgeStyle;rounded=0;orthogonalLoop=1;jettySize=auto;html=1;exitX=0.5;exitY=1;exitDx=0;exitDy=0;entryX=0;entryY=0.5;entryDx=0;entryDy=0;" edge="1" parent="1" source="_py3yEN6EtsgkCyzsrZI-7" target="_py3yEN6EtsgkCyzsrZI-3">
          <mxGeometry relative="1" as="geometry" />
        </mxCell>
        <mxCell id="_py3yEN6EtsgkCyzsrZI-7" value="&lt;u&gt;Plongeur&lt;/u&gt;&lt;br&gt;&lt;b&gt;id plongeur&lt;br&gt;&lt;/b&gt;&lt;i&gt;id licence&lt;br&gt;id passeport&lt;br&gt;id club&lt;/i&gt;" style="rounded=0;whiteSpace=wrap;html=1;" vertex="1" parent="1">
          <mxGeometry x="-130" y="230" width="70" height="110" as="geometry" />
        </mxCell>
        <mxCell id="_py3yEN6EtsgkCyzsrZI-25" style="edgeStyle=orthogonalEdgeStyle;rounded=0;orthogonalLoop=1;jettySize=auto;html=1;exitX=0.5;exitY=1;exitDx=0;exitDy=0;entryX=0.5;entryY=0;entryDx=0;entryDy=0;" edge="1" parent="1" source="_py3yEN6EtsgkCyzsrZI-8" target="_py3yEN6EtsgkCyzsrZI-7">
          <mxGeometry relative="1" as="geometry" />
        </mxCell>
        <mxCell id="_py3yEN6EtsgkCyzsrZI-34" style="edgeStyle=orthogonalEdgeStyle;rounded=0;orthogonalLoop=1;jettySize=auto;html=1;exitX=1;exitY=0.25;exitDx=0;exitDy=0;entryX=0;entryY=0.25;entryDx=0;entryDy=0;" edge="1" parent="1" source="_py3yEN6EtsgkCyzsrZI-8" target="_py3yEN6EtsgkCyzsrZI-1">
          <mxGeometry relative="1" as="geometry" />
        </mxCell>
        <mxCell id="_py3yEN6EtsgkCyzsrZI-8" value="&lt;u&gt;Palanquées&lt;/u&gt;&lt;br&gt;&lt;b&gt;id palanquées&lt;br&gt;&lt;/b&gt;&lt;i&gt;id licence&lt;br&gt;id passeport&lt;br&gt;id plongeur&lt;br&gt;id club&lt;br&gt;id monitor&lt;br&gt;&lt;/i&gt;date&lt;br&gt;heure&lt;br&gt;nom site&lt;br&gt;durée" style="rounded=0;whiteSpace=wrap;html=1;" vertex="1" parent="1">
          <mxGeometry x="-140" y="30" width="90" height="160" as="geometry" />
        </mxCell>
        <mxCell id="_py3yEN6EtsgkCyzsrZI-21" style="edgeStyle=orthogonalEdgeStyle;rounded=0;orthogonalLoop=1;jettySize=auto;html=1;exitX=0.5;exitY=0;exitDx=0;exitDy=0;entryX=1;entryY=0.25;entryDx=0;entryDy=0;" edge="1" parent="1" source="_py3yEN6EtsgkCyzsrZI-9" target="_py3yEN6EtsgkCyzsrZI-5">
          <mxGeometry relative="1" as="geometry" />
        </mxCell>
        <mxCell id="_py3yEN6EtsgkCyzsrZI-40" style="edgeStyle=orthogonalEdgeStyle;rounded=0;orthogonalLoop=1;jettySize=auto;html=1;exitX=0;exitY=0.5;exitDx=0;exitDy=0;entryX=1;entryY=0.5;entryDx=0;entryDy=0;" edge="1" parent="1" source="_py3yEN6EtsgkCyzsrZI-9" target="_py3yEN6EtsgkCyzsrZI-3">
          <mxGeometry relative="1" as="geometry" />
        </mxCell>
        <mxCell id="_py3yEN6EtsgkCyzsrZI-9" value="&lt;u&gt;Travail&lt;/u&gt;&lt;br&gt;&lt;b&gt;id contrat&lt;br&gt;&lt;/b&gt;&lt;i&gt;id moniteur&lt;br&gt;id club&lt;br&gt;&lt;/i&gt;date embauche&lt;br&gt;date fin" style="whiteSpace=wrap;html=1;aspect=fixed;" vertex="1" parent="1">
          <mxGeometry x="320" y="390" width="105" height="105" as="geometry" />
        </mxCell>
        <mxCell id="_py3yEN6EtsgkCyzsrZI-28" value="1,1" style="text;html=1;strokeColor=none;fillColor=none;align=center;verticalAlign=middle;whiteSpace=wrap;rounded=0;" vertex="1" parent="1">
          <mxGeometry x="200" y="80" width="40" height="20" as="geometry" />
        </mxCell>
        <mxCell id="_py3yEN6EtsgkCyzsrZI-29" value="1,1" style="text;html=1;strokeColor=none;fillColor=none;align=center;verticalAlign=middle;whiteSpace=wrap;rounded=0;" vertex="1" parent="1">
          <mxGeometry x="150" y="200" width="40" height="20" as="geometry" />
        </mxCell>
        <mxCell id="_py3yEN6EtsgkCyzsrZI-30" style="edgeStyle=orthogonalEdgeStyle;rounded=0;orthogonalLoop=1;jettySize=auto;html=1;exitX=0.5;exitY=1;exitDx=0;exitDy=0;" edge="1" parent="1" source="_py3yEN6EtsgkCyzsrZI-1" target="_py3yEN6EtsgkCyzsrZI-29">
          <mxGeometry relative="1" as="geometry">
            <mxPoint x="115" y="160" as="sourcePoint" />
            <mxPoint x="220" y="280" as="targetPoint" />
          </mxGeometry>
        </mxCell>
        <mxCell id="_py3yEN6EtsgkCyzsrZI-31" value="1,n" style="text;html=1;strokeColor=none;fillColor=none;align=center;verticalAlign=middle;whiteSpace=wrap;rounded=0;" vertex="1" parent="1">
          <mxGeometry x="290" y="280" width="40" height="20" as="geometry" />
        </mxCell>
        <mxCell id="_py3yEN6EtsgkCyzsrZI-35" value="n,n" style="text;html=1;strokeColor=none;fillColor=none;align=center;verticalAlign=middle;whiteSpace=wrap;rounded=0;" vertex="1" parent="1">
          <mxGeometry x="-30" y="40" width="40" height="20" as="geometry" />
        </mxCell>
        <mxCell id="_py3yEN6EtsgkCyzsrZI-36" value="1,1" style="text;html=1;strokeColor=none;fillColor=none;align=center;verticalAlign=middle;whiteSpace=wrap;rounded=0;" vertex="1" parent="1">
          <mxGeometry x="-40" y="240" width="40" height="20" as="geometry" />
        </mxCell>
        <mxCell id="_py3yEN6EtsgkCyzsrZI-37" value="n,1" style="text;html=1;strokeColor=none;fillColor=none;align=center;verticalAlign=middle;whiteSpace=wrap;rounded=0;" vertex="1" parent="1">
          <mxGeometry x="50" y="260" width="40" height="20" as="geometry" />
        </mxCell>
        <mxCell id="_py3yEN6EtsgkCyzsrZI-41" value="n,1" style="text;html=1;strokeColor=none;fillColor=none;align=center;verticalAlign=middle;whiteSpace=wrap;rounded=0;" vertex="1" parent="1">
          <mxGeometry x="250" y="450" width="40" height="20" as="geometry" />
        </mxCell>
        <mxCell id="_py3yEN6EtsgkCyzsrZI-42" value="n,n" style="text;html=1;strokeColor=none;fillColor=none;align=center;verticalAlign=middle;whiteSpace=wrap;rounded=0;" vertex="1" parent="1">
          <mxGeometry x="-100" y="200" width="40" height="20" as="geometry" />
        </mxCell>
        <mxCell id="_py3yEN6EtsgkCyzsrZI-44" value="n,1" style="text;html=1;strokeColor=none;fillColor=none;align=center;verticalAlign=middle;whiteSpace=wrap;rounded=0;" vertex="1" parent="1">
          <mxGeometry x="-100" y="370" width="40" height="20" as="geometry" />
        </mxCell>
        <mxCell id="_py3yEN6EtsgkCyzsrZI-49" value="&lt;u&gt;Groupe&lt;/u&gt;&lt;br&gt;&lt;b&gt;id groupe&lt;br&gt;&lt;/b&gt;nom groupe&lt;br&gt;id président&lt;br&gt;id assamblée" style="rounded=0;whiteSpace=wrap;html=1;" vertex="1" parent="1">
          <mxGeometry x="80" y="600" width="90" height="120" as="geometry" />
        </mxCell>
        <mxCell id="_py3yEN6EtsgkCyzsrZI-71" style="edgeStyle=orthogonalEdgeStyle;rounded=0;orthogonalLoop=1;jettySize=auto;html=1;exitX=0;exitY=0.25;exitDx=0;exitDy=0;entryX=1.011;entryY=0.333;entryDx=0;entryDy=0;entryPerimeter=0;" edge="1" parent="1" source="_py3yEN6EtsgkCyzsrZI-50" target="_py3yEN6EtsgkCyzsrZI-49">
          <mxGeometry relative="1" as="geometry" />
        </mxCell>
        <mxCell id="_py3yEN6EtsgkCyzsrZI-72" style="edgeStyle=orthogonalEdgeStyle;rounded=0;orthogonalLoop=1;jettySize=auto;html=1;exitX=0;exitY=0.5;exitDx=0;exitDy=0;entryX=1;entryY=0;entryDx=0;entryDy=0;" edge="1" parent="1" source="_py3yEN6EtsgkCyzsrZI-50" target="_py3yEN6EtsgkCyzsrZI-51">
          <mxGeometry relative="1" as="geometry">
            <Array as="points">
              <mxPoint x="300" y="670" />
              <mxPoint x="300" y="750" />
              <mxPoint x="210" y="750" />
            </Array>
          </mxGeometry>
        </mxCell>
        <mxCell id="_py3yEN6EtsgkCyzsrZI-73" style="edgeStyle=orthogonalEdgeStyle;rounded=0;orthogonalLoop=1;jettySize=auto;html=1;exitX=0.75;exitY=1;exitDx=0;exitDy=0;entryX=1;entryY=0.5;entryDx=0;entryDy=0;" edge="1" parent="1" source="_py3yEN6EtsgkCyzsrZI-50" target="_py3yEN6EtsgkCyzsrZI-52">
          <mxGeometry relative="1" as="geometry" />
        </mxCell>
        <mxCell id="_py3yEN6EtsgkCyzsrZI-85" style="edgeStyle=orthogonalEdgeStyle;rounded=0;orthogonalLoop=1;jettySize=auto;html=1;exitX=1;exitY=0.5;exitDx=0;exitDy=0;entryX=1;entryY=0.5;entryDx=0;entryDy=0;" edge="1" parent="1" source="_py3yEN6EtsgkCyzsrZI-50" target="_py3yEN6EtsgkCyzsrZI-83">
          <mxGeometry relative="1" as="geometry" />
        </mxCell>
        <mxCell id="_py3yEN6EtsgkCyzsrZI-91" style="edgeStyle=orthogonalEdgeStyle;rounded=0;orthogonalLoop=1;jettySize=auto;html=1;exitX=0;exitY=1;exitDx=0;exitDy=0;" edge="1" parent="1" source="_py3yEN6EtsgkCyzsrZI-50" target="_py3yEN6EtsgkCyzsrZI-88">
          <mxGeometry relative="1" as="geometry">
            <Array as="points">
              <mxPoint x="330" y="800" />
              <mxPoint x="270" y="800" />
              <mxPoint x="270" y="890" />
              <mxPoint x="240" y="890" />
              <mxPoint x="240" y="1085" />
            </Array>
          </mxGeometry>
        </mxCell>
        <mxCell id="_py3yEN6EtsgkCyzsrZI-100" style="edgeStyle=orthogonalEdgeStyle;rounded=0;orthogonalLoop=1;jettySize=auto;html=1;exitX=1;exitY=0.25;exitDx=0;exitDy=0;entryX=1;entryY=1;entryDx=0;entryDy=0;" edge="1" parent="1" source="_py3yEN6EtsgkCyzsrZI-50" target="_py3yEN6EtsgkCyzsrZI-88">
          <mxGeometry relative="1" as="geometry">
            <Array as="points">
              <mxPoint x="530" y="630" />
              <mxPoint x="530" y="1110" />
              <mxPoint x="230" y="1110" />
            </Array>
          </mxGeometry>
        </mxCell>
        <mxCell id="_py3yEN6EtsgkCyzsrZI-50" value="&lt;u&gt;Assamblée&lt;/u&gt;&lt;br&gt;&lt;b&gt;id assamblée&lt;br&gt;&lt;/b&gt;&lt;i&gt;id commune&lt;br&gt;id président&lt;br&gt;id élus&lt;br&gt;id suppléant&lt;br&gt;&lt;/i&gt;" style="rounded=0;whiteSpace=wrap;html=1;" vertex="1" parent="1">
          <mxGeometry x="330" y="590" width="110" height="160" as="geometry" />
        </mxCell>
        <mxCell id="_py3yEN6EtsgkCyzsrZI-74" style="edgeStyle=orthogonalEdgeStyle;rounded=0;orthogonalLoop=1;jettySize=auto;html=1;exitX=0.25;exitY=0;exitDx=0;exitDy=0;entryX=1;entryY=0.5;entryDx=0;entryDy=0;" edge="1" parent="1" source="_py3yEN6EtsgkCyzsrZI-51" target="_py3yEN6EtsgkCyzsrZI-57">
          <mxGeometry relative="1" as="geometry">
            <Array as="points">
              <mxPoint x="128" y="790" />
              <mxPoint x="50" y="790" />
              <mxPoint x="50" y="630" />
            </Array>
          </mxGeometry>
        </mxCell>
        <mxCell id="_py3yEN6EtsgkCyzsrZI-75" style="edgeStyle=orthogonalEdgeStyle;rounded=0;orthogonalLoop=1;jettySize=auto;html=1;exitX=0;exitY=0.25;exitDx=0;exitDy=0;entryX=1;entryY=0.5;entryDx=0;entryDy=0;" edge="1" parent="1" source="_py3yEN6EtsgkCyzsrZI-51" target="_py3yEN6EtsgkCyzsrZI-54">
          <mxGeometry relative="1" as="geometry" />
        </mxCell>
        <mxCell id="_py3yEN6EtsgkCyzsrZI-93" style="edgeStyle=orthogonalEdgeStyle;rounded=0;orthogonalLoop=1;jettySize=auto;html=1;exitX=0.5;exitY=1;exitDx=0;exitDy=0;entryX=0;entryY=0;entryDx=0;entryDy=0;" edge="1" parent="1" source="_py3yEN6EtsgkCyzsrZI-51" target="_py3yEN6EtsgkCyzsrZI-88">
          <mxGeometry relative="1" as="geometry" />
        </mxCell>
        <mxCell id="_py3yEN6EtsgkCyzsrZI-94" style="edgeStyle=orthogonalEdgeStyle;rounded=0;orthogonalLoop=1;jettySize=auto;html=1;exitX=1;exitY=1;exitDx=0;exitDy=0;entryX=0;entryY=0.25;entryDx=0;entryDy=0;" edge="1" parent="1" source="_py3yEN6EtsgkCyzsrZI-51" target="_py3yEN6EtsgkCyzsrZI-83">
          <mxGeometry relative="1" as="geometry" />
        </mxCell>
        <mxCell id="_py3yEN6EtsgkCyzsrZI-99" style="edgeStyle=orthogonalEdgeStyle;rounded=0;orthogonalLoop=1;jettySize=auto;html=1;exitX=1;exitY=0.5;exitDx=0;exitDy=0;" edge="1" parent="1" source="_py3yEN6EtsgkCyzsrZI-51" target="_py3yEN6EtsgkCyzsrZI-52">
          <mxGeometry relative="1" as="geometry" />
        </mxCell>
        <mxCell id="_py3yEN6EtsgkCyzsrZI-51" value="&lt;u&gt;Politicien&lt;/u&gt;&lt;br&gt;&lt;b&gt;id politicien&lt;br&gt;&lt;/b&gt;nom&lt;br&gt;prénom&lt;br&gt;adresse&lt;br&gt;id parti&lt;br&gt;&lt;i&gt;id assamblée&lt;br&gt;id commune&lt;/i&gt;" style="rounded=0;whiteSpace=wrap;html=1;" vertex="1" parent="1">
          <mxGeometry x="100" y="830" width="110" height="150" as="geometry" />
        </mxCell>
        <mxCell id="_py3yEN6EtsgkCyzsrZI-52" value="&lt;u&gt;Elus&lt;/u&gt;&lt;br&gt;&lt;b&gt;id élus&lt;br&gt;&lt;/b&gt;&lt;i&gt;id politicien&lt;br&gt;id assamblée&lt;/i&gt;" style="rounded=0;whiteSpace=wrap;html=1;" vertex="1" parent="1">
          <mxGeometry x="290" y="850" width="80" height="110" as="geometry" />
        </mxCell>
        <mxCell id="_py3yEN6EtsgkCyzsrZI-54" value="&lt;u&gt;Commune&lt;/u&gt;&lt;br&gt;&lt;b&gt;id commune&lt;br&gt;&lt;/b&gt;nom commune" style="rounded=0;whiteSpace=wrap;html=1;" vertex="1" parent="1">
          <mxGeometry x="-120" y="790" width="90" height="110" as="geometry" />
        </mxCell>
        <mxCell id="_py3yEN6EtsgkCyzsrZI-57" value="&lt;u&gt;Parti politique&lt;br&gt;&lt;/u&gt;&lt;b&gt;id parti&lt;br&gt;&lt;/b&gt;nom&lt;br&gt;tendance politique&lt;br&gt;date fondation" style="rounded=0;whiteSpace=wrap;html=1;" vertex="1" parent="1">
          <mxGeometry x="-150" y="580" width="120" height="100" as="geometry" />
        </mxCell>
        <mxCell id="_py3yEN6EtsgkCyzsrZI-77" value="1,n" style="text;html=1;strokeColor=none;fillColor=none;align=center;verticalAlign=middle;whiteSpace=wrap;rounded=0;" vertex="1" parent="1">
          <mxGeometry x="260" y="600" width="40" height="20" as="geometry" />
        </mxCell>
        <mxCell id="_py3yEN6EtsgkCyzsrZI-78" value="1,n" style="text;html=1;strokeColor=none;fillColor=none;align=center;verticalAlign=middle;whiteSpace=wrap;rounded=0;" vertex="1" parent="1">
          <mxGeometry x="220" y="720" width="40" height="20" as="geometry" />
        </mxCell>
        <mxCell id="_py3yEN6EtsgkCyzsrZI-79" value="1,n" style="text;html=1;strokeColor=none;fillColor=none;align=center;verticalAlign=middle;whiteSpace=wrap;rounded=0;" vertex="1" parent="1">
          <mxGeometry x="365" y="790" width="40" height="20" as="geometry" />
        </mxCell>
        <mxCell id="_py3yEN6EtsgkCyzsrZI-81" value="n,1" style="text;html=1;strokeColor=none;fillColor=none;align=center;verticalAlign=middle;whiteSpace=wrap;rounded=0;" vertex="1" parent="1">
          <mxGeometry x="60" y="760" width="40" height="20" as="geometry" />
        </mxCell>
        <mxCell id="_py3yEN6EtsgkCyzsrZI-82" value="n,1" style="text;html=1;strokeColor=none;fillColor=none;align=center;verticalAlign=middle;whiteSpace=wrap;rounded=0;" vertex="1" parent="1">
          <mxGeometry x="40" y="840" width="40" height="20" as="geometry" />
        </mxCell>
        <mxCell id="_py3yEN6EtsgkCyzsrZI-83" value="&lt;u&gt;Suppléant&lt;/u&gt;&lt;b&gt;&amp;nbsp;&lt;/b&gt;&lt;br&gt;&lt;b&gt;id suppléant&lt;/b&gt;&lt;br&gt;id politicien&lt;br&gt;&lt;i&gt;id assamblée&lt;/i&gt;" style="rounded=0;whiteSpace=wrap;html=1;" vertex="1" parent="1">
          <mxGeometry x="320" y="980" width="80" height="110" as="geometry" />
        </mxCell>
        <mxCell id="_py3yEN6EtsgkCyzsrZI-86" value="1,n" style="text;html=1;strokeColor=none;fillColor=none;align=center;verticalAlign=middle;whiteSpace=wrap;rounded=0;" vertex="1" parent="1">
          <mxGeometry x="470" y="810" width="40" height="20" as="geometry" />
        </mxCell>
        <mxCell id="_py3yEN6EtsgkCyzsrZI-88" value="&lt;u&gt;Président&lt;/u&gt;&lt;br&gt;&lt;b&gt;id président&lt;/b&gt;&lt;br&gt;&lt;i&gt;id politicien&lt;br&gt;id assamblée&lt;/i&gt;" style="rounded=0;whiteSpace=wrap;html=1;" vertex="1" parent="1">
          <mxGeometry x="150" y="1030" width="80" height="110" as="geometry" />
        </mxCell>
        <mxCell id="_py3yEN6EtsgkCyzsrZI-90" value="1,1" style="text;html=1;strokeColor=none;fillColor=none;align=center;verticalAlign=middle;whiteSpace=wrap;rounded=0;" vertex="1" parent="1">
          <mxGeometry x="240" y="1060" width="40" height="20" as="geometry" />
        </mxCell>
        <mxCell id="_py3yEN6EtsgkCyzsrZI-95" value="1,n" style="text;html=1;strokeColor=none;fillColor=none;align=center;verticalAlign=middle;whiteSpace=wrap;rounded=0;" vertex="1" parent="1">
          <mxGeometry x="270" y="780" width="40" height="20" as="geometry" />
        </mxCell>
        <mxCell id="_py3yEN6EtsgkCyzsrZI-96" value="1,1" style="text;html=1;strokeColor=none;fillColor=none;align=center;verticalAlign=middle;whiteSpace=wrap;rounded=0;" vertex="1" parent="1">
          <mxGeometry x="250" y="910" width="40" height="20" as="geometry" />
        </mxCell>
        <mxCell id="_py3yEN6EtsgkCyzsrZI-97" value="1,1" style="text;html=1;strokeColor=none;fillColor=none;align=center;verticalAlign=middle;whiteSpace=wrap;rounded=0;" vertex="1" parent="1">
          <mxGeometry x="105" y="1000" width="40" height="20" as="geometry" />
        </mxCell>
        <mxCell id="_py3yEN6EtsgkCyzsrZI-98" value="1,1" style="text;html=1;strokeColor=none;fillColor=none;align=center;verticalAlign=middle;whiteSpace=wrap;rounded=0;" vertex="1" parent="1">
          <mxGeometry x="270" y="1010" width="40" height="20" as="geometry" />
        </mxCell>
        <mxCell id="_py3yEN6EtsgkCyzsrZI-101" value="1,n" style="text;html=1;strokeColor=none;fillColor=none;align=center;verticalAlign=middle;whiteSpace=wrap;rounded=0;" vertex="1" parent="1">
          <mxGeometry x="530" y="770" width="40" height="30" as="geometry" />
        </mxCell>
      </root>
    </mxGraphModel>
  </diagram>
</mxfile>
